<svg width="190" viewBox="0 0 202 59.5" xmlns="http://www.w3.org/2000/svg">
  <style>
  .desktop,
  .tablet {
    display:none;
  }

  @media (min-width:202px) {
  .mobile {
    display:none;
  }

  .tablet {
    display:block;
  }

  .letters {
    transform: matrix(0.82, 0, 0, 0.82, 10, 15);
  }
}

@media (min-width:203px) {
  .desktop {
    display:block;
  }

  .letters {
    transform: matrix(1.13, 0, 0, 1.13, -25, 9);
  }
}

.st0 {
  fill: #fdc305;
  }

.st1 {
    fill: #f06351;
  }

.st3 {
  fill: #111111;
  }

</style>
<g class="mobile">
  <path class="st0" d="M6.454 21.9l.106-2.433c7.088-.952 14.177-1.481 21.371-1.375 0 .635 0 1.27-.106 1.904 0 0 3.069-1.375 6.348-1.904C31.634 11.426 25.18 6.665 17.67 6.665 8.887 6.665 1.587 13.12.212 21.583c2.327.106 6.242.318 6.242.318zm22.324 3.704c-1.27 1.375-1.482 1.27-1.482 3.703v9.733c4.761-3.174 7.83-8.57 7.83-14.706 0-1.164-.106-2.222-.318-3.28-1.798 1.164-4.972 3.386-6.03 4.55zM6.771 27.19s-4.02-1.48-5.501-1.904L0 24.97c.212 6.348 3.915 11.955 9.205 14.812L6.77 27.19z"/>
  <path class="st1" d="M27.825 18.092c.106-8.993-1.48-17.457-1.48-17.457s-.212-1.27-.953-.212c-.74 1.164-1.27 4.126-1.27 4.126-7.829-.423-13.542.318-13.542.318-.846-2.751-2.222-4.02-2.962-3.809-.741.317-.741 3.597-.741 3.597l-.423 14.918c7.088-1.058 14.283-1.481 21.371-1.481z"/>
  <path d="M13.12 14.812c0-.106 1.057.74 1.48.952s.635.423.635.635c0 .212-.317.317-.635.317s-.952-.105-1.058-.317h1.27c.106.106-1.375-1.058-1.693-1.587zm7.934.106s-1.058 1.375-1.164 1.375c0 .106-.211.318.212.318s1.164-.212 1.27-.318.105-.211-.106-.211-.74 0-1.058.105l.846-1.27s.106-.105 0 0zm-3.28 6.454s.847-.424 1.164-1.058c.318-.741 0-.953-.423-1.058-.529-.106-1.375 0-1.799.317-.423.423-.317.74-.105 1.058.211.212.846.635 1.163.74z"/>
  <path class="st1" d="M17.245 22.747s-.211.423-.529.635a1.616 1.616 0 01-1.058.423c-.634 0-1.163-.212-1.587-.423-.211-.106-.423-.318-.529-.423-.211-.212-.423-.318-.423-.318s.74 4.338 2.751 4.973c1.904.635 2.222-.74 2.328-1.164 0-.317 0-2.222-.847-3.386.106-.423 0-.211-.106-.317z"/>
  <path d="M15.553 23.91c-1.376 0-2.434-1.48-2.434-1.48v-.212h.212s1.058 1.375 2.222 1.375c.634 0 1.163-.317 1.692-1.058l.106-.211.106.211s.423.847 1.058.847c.529 0 1.164-.423 1.693-1.376 0-.105.106-.105.211 0 .106 0 .106.106 0 .212-.634 1.058-1.375 1.481-2.01 1.481s-.952-.529-1.164-.846c-.423.74-1.058 1.058-1.692 1.058z"/>
  <path class="st1" d="M27.72 19.996s-2.645 2.328-5.396 5.502-5.502 5.184-5.502 5.184c-.211-.529-1.693-1.587-1.693-1.587s-3.28-2.222-5.501-4.02c-1.27-1.058-2.434-2.328-3.28-3.174-.317 0-1.164-.106-2.116-.106 4.973 7.406 12.696 9.31 12.696 9.31.952-.106 3.491-2.01 5.396-3.491 1.904-1.481 5.078-4.761 6.242-6.242.635-.741.952-1.482 1.164-2.116-1.164.423-2.01.74-2.01.74z"/>
</g>
<g class="letters" >
  <path class="st3" d="M96.27 30.937c-.847-1.058-1.27-2.645-1.27-4.655v-6.666c0-2.01.423-3.597 1.27-4.655s2.327-1.587 4.443-1.587c2.01 0 3.386.423 4.232 1.375.847.953 1.27 2.222 1.27 4.02v1.588h-4.232v-1.905c0-.74-.106-1.27-.212-1.692-.106-.318-.529-.53-1.058-.53s-1.058.212-1.164.635c-.211.424-.317.953-.317 1.693v8.782c0 .74.106 1.27.317 1.692.212.424.53.635 1.164.635.53 0 .952-.211 1.058-.635.212-.423.212-.952.212-1.692v-1.905h4.126v1.587c0 1.693-.423 3.068-1.27 4.126-.846.953-2.221 1.482-4.232 1.482-2.01-.106-3.491-.635-4.337-1.693zm14.812-17.351h4.76l3.492 18.62h-3.809l-.635-3.914h-2.75l-.635 3.914h-3.915l3.492-18.62zm3.385 12.272l-.952-7.3-.952 7.3h1.904zm7.829-9.204h-2.856v-3.068h9.84v3.068h-2.857v15.552h-4.232V16.654h.105zm14.495-3.068h7.3v1.904h-4.655v6.136h3.809v1.799h-3.809v6.771h4.761v1.905h-7.406V13.586zm9.522 0h1.799l5.395 12.378V13.586h2.222v18.62h-1.693l-5.395-12.696v12.696h-2.222v-18.62h-.106zm11.955 0h7.3v1.904h-4.655v6.136h3.81v1.799h-3.81v6.771h4.761v1.905h-7.406V13.586zm9.522 0h3.81c1.904 0 3.279.423 4.231 1.163s1.376 2.01 1.376 3.81c0 2.433-.741 3.808-2.328 4.337l2.645 9.31h-2.54l-2.433-8.781h-2.01v8.781h-2.645l-.106-18.62zm3.598 8.04c1.163 0 1.904-.211 2.433-.634.529-.424.74-1.27.74-2.434 0-.74-.105-1.375-.211-1.798s-.423-.741-.952-.953c-.423-.211-1.058-.317-1.799-.317h-1.164v6.136h.953zm9.098 9.205c-.74-1.058-1.163-2.645-1.163-4.761v-6.136c0-1.482.105-2.645.423-3.598s.846-1.587 1.587-2.116 1.798-.74 3.068-.74c1.693 0 2.962.423 3.809 1.27.74.846 1.164 2.221 1.164 4.126v.74h-2.434v-.635c0-.846-.106-1.587-.211-2.01-.106-.529-.318-.846-.741-1.058-.317-.317-.846-.423-1.481-.423-.74 0-1.27.212-1.587.529s-.635.74-.74 1.27-.107 1.27-.107 2.221v6.877c0 1.376.212 2.434.53 3.069s1.057.952 2.01.952 1.692-.318 2.01-1.058c.317-.635.529-1.799.529-3.28V24.8h-2.434v-1.798h4.761v9.204h-1.692l-.212-2.116c-.635 1.587-1.693 2.328-3.386 2.328-1.692 0-2.962-.529-3.703-1.587zm14.284-5.184l-4.127-12.061h2.434l2.856 8.993 2.857-8.993h2.433l-4.02 12.06v6.56h-2.54v-6.56h.106z"/>
</g>
<g class="tablet">
  <path class="st0" d="M59.9 24C54.4 11 39.4 4.8 26.4 10.2S7.2 30.7 12.6 43.7c3.6 8.6 11.3 14.2 19.9 15.5-.6-2.1-1.2-4.4-1.7-6.9 1.5 1 3.1 1.8 4.8 2.6 0 0 .1 2.2.3 4.6 1.8 0 3.6-.1 5.3-.5v-.8c.3-1.9 1.1-5.2 1.2-7.4 1.1-1.1 2.1-2.3 2.9-3.7 0 .1 0 .3-.1.4-.6 4.3-1.7 8.8-2.4 10.1-.2.4-.5.9-.8 1.2 1.4-.3 2.7-.8 4.1-1.3C59.2 52 65.3 37 59.9 24zm-1.5 3.8c-.4.4-1.3.7-1.5-.6s-.2-2.2-.2-2.2-1.9-3.4-2.7-3.5c-.7 0-5.8 3.5-7.2 5-1.2 1.3-1.4 1.2-1.4 3.5 0 1.7.2 8.2.1 13.1 0 0-2.2.6-8.1 2.2-6 1.6-7.8 1.8-7.8 1.8l-1-5.8L25.9 28s-3.8-1.4-5.2-1.8c-1.4-.4-2.3-.7-4 .6-1.8 1.3-1.7 3.9-1.7 3.9s.4 1 .5 1.4c0 .5-1.2.4-2 .4s-.9-1.4-.3-3.1c.6-1.7 1.9-3.7 1.9-3.7s1.2-2.3 2.1-2.9c0 0 .1-.3 1.3-.2 1.1.1 7.3.4 7.3.4l.1-2.3c6.7-.9 13.5-1.4 20.2-1.3 0 .6 0 1.2-.1 1.8 0 0 4.4-2 8.1-2 0 0 .4 0 .8.4.3.4 2.4 3 2.7 3.4.2.4 1.2 1.7 1.8 3-.1 0-.6 1.3-1 1.8z"/>
  <path class="st1" d="M56.5 21.7c.5.6.9 1.1 1 1.3.2.4 1.2 1.7 1.8 3 0 0-.4 1.3-.9 1.8s-1.3.7-1.5-.6-.2-2.2-.2-2.2-1.9-3.4-2.7-3.5c-.7 0-5.8 3.5-7.2 5-1.2 1.3-1.4 1.2-1.4 3.5 0 1.5.2 6.6.1 11.2 1.8.2 4.5.7 5.3 1.9 0 0-.3-7.2 7.8-3.4 0 0 .3-9.8 11.5-7.3.1 0-5.6-7-13.6-10.7zm-10.6-2.3c.1-8.5-1.4-16.5-1.4-16.5s-.1-1.3-.9-.2c-.7 1.1-1.2 4-1.2 4-7.4-.6-12.8.2-12.8.2-.8-2.7-2.2-4-2.9-3.7-.6.3-.7 3.3-.7 3.3l-.3 14.2c6.7-.9 13.5-1.4 20.2-1.3z"/>
  <path d="M45.4 47.1c.1-1.1.2-2.5.2-4.1 0 0-2.2.6-8.1 2.2-6 1.6-7.8 1.8-7.8 1.8l1.1 5c0 .1 0 .2.1.3 1.5 1 3.1 1.8 4.8 2.6 4.4-2.2 6.9-4.1 6.9-4.1v.1c1-1.1 2-2.4 2.8-3.8z" fill="#e55645"/>
  <path d="M32 16.2c0-.1 1 .7 1.4.9.4.2.6.4.6.6 0 .2-.3.3-.6.3s-.9-.1-1-.3h1.2c.1.1-1.3-1-1.6-1.5zm7.5.1l-1.1 1.3c0 .1-.2.3.2.3s1.1-.2 1.2-.3c.1-.1.1-.2-.1-.2s-.7 0-1 .1l.8-1.2c.1 0 .1-.1 0 0zm-3.1 6.1s.8-.4 1.1-1c.3-.7 0-.9-.4-1s-1.3 0-1.7.3c-.4.4-.3.7-.1 1 .2.3.8.7 1.1.7z"/>
  <path class="st1" d="M35.9 23.7s-.2.4-.5.6c-.2.2-.6.4-1 .4-.6 0-1.1-.2-1.5-.4-.2-.1-.4-.3-.5-.4-.2-.2-.4-.3-.4-.3s.8 4.1 2.6 4.8c1.8.7 2.2-.8 2.2-1.1 0-.3 0-2.1-.8-3.2.1-.5 0-.3-.1-.4z"/>
  <path d="M34.3 24.8c-1.3 0-2.3-1.4-2.4-1.4v-.2h.2s1 1.3 2.1 1.3c.6 0 1.1-.3 1.6-1l.1-.2.1.2s.4.8 1 .8c.5 0 1.1-.4 1.6-1.3 0-.1.1-.1.2 0 .1 0 .1.1 0 .2-.6 1-1.3 1.5-1.9 1.4-.6 0-.9-.5-1.1-.8-.3.7-.9 1-1.5 1z"/>
</g>
<circle transform="rotate(-22.676 36.253 34.547)" class="desktop st0" cx="36.3" cy="34.5" r="3.8"/>
<path class="tablet st3" d="M41.2 31.5l-3.1 1.3 1.1-5.6-7.5 9.8 3.1-1.3-1.1 5.6 7.5-9.8zm-7.4 3.8l4.1-5.4-.8 4 2-.8-4.1 5.4.8-4-2 .8z"/>
<circle transform="rotate(-22.676 32.435 32.742)" class="desktop st3" cx="32.4" cy="32.7" r="1.1"/>
<circle transform="rotate(-22.676 38.956 37.134)" class="desktop st3" cx="39" cy="37.1" r=".8"/>
<circle transform="rotate(-22.676 39.92 35.398)" class="desktop st3" cx="39.9" cy="35.4" r=".3"/>
<path class="tablet st1" d="M45.9 21.2s-2.6 2.3-5.1 5.2-5.3 4.9-5.3 4.9c-.2-.5-1.6-1.5-1.6-1.5s-3.1-2.1-5.2-3.8c-1.2-1-2.4-2.2-3.1-3-.3 0-1.1-.1-2-.1 4.7 7 12 8.8 12 8.8.9-.1 3.3-1.9 5.1-3.3 1.8-1.4 4.8-4.5 6-5.9.6-.7.9-1.4 1.1-2-1.2.3-1.9.7-1.9.7z"/>
<path class="desktop st0" d="M65.2 3.5l-8.4 9.4-1.3-2L63.7 0zm-2.6 13.8l5.6-4.2-.8-3.7-5.4 4.8zm-2.7 32.1l6.2 3.2 3-2.4-6.7-2.7zM2 6l3-3.4 9.3 9-1.2 2.3zm5.4 10.3l-4.7-3.1L.3 17l5.1 2.4zm6.5 36.3l-4.5 3.3 2.8 3.6 4-4z"/>
<path class="tablet st1" d="M25.9 28s-3.8-1.4-5.2-1.8c-1.4-.4-2.3-.7-4 .6-1.8 1.3-1.7 3.9-1.7 3.9s.4 1 .5 1.4c0 .5-1.2.4-2 .4s-.9-1.4-.3-3.1c.6-1.7 1.9-3.7 1.9-3.7-5.4 2.8-15 9.4-15 9.4s2.9-.3 8.2.2c5.3.5 5 4.7 5 4.7s3.5-1 5.6-1.1c2.1-.1 2.3 2.1 2.3 2.1l.5 3.9s.5-.6 2.7-2.4c1.9-1.5 3.9-1.4 4.4-1.3L25.9 28z"/>
</svg>
